<svg xmlns="http://www.w3.org/2000/svg" xmlns:xlink="http://www.w3.org/1999/xlink" viewBox="0,0,256,256" width="100px" height="100px"><g fill="none" fill-rule="nonzero" stroke="none" stroke-width="1" stroke-linecap="butt" stroke-linejoin="miter" stroke-miterlimit="10" stroke-dasharray="" stroke-dashoffset="0" font-family="none" font-weight="none" font-size="none" text-anchor="none" style="mix-blend-mode: normal"><g transform="scale(2.56,2.56)"><path d="M30.64,36.275c7.042,-8.542 10.948,-13.279 17.99,-13.279c12.764,0 16.07,9.906 24.867,16.413c3.503,2.591 13.483,5.409 17.004,-3.134c-3.521,11.746 -10.563,17.085 -17.606,17.085c-5.173,0 -11.895,-5.36 -18.046,-12.28c-7.582,-8.528 -20.687,-9.076 -24.209,-4.805z" fill="#7fe0ff"></path><path d="M9.499,59.919c7.042,-8.542 10.948,-13.279 17.99,-13.279c12.764,0 16.359,9.532 24.867,16.413c3.644,2.947 13.482,5.408 17.004,-3.134c-3.521,11.746 -10.564,17.084 -17.606,17.084c-5.173,0.001 -11.754,-5.003 -18.047,-12.279c-7.464,-8.631 -20.687,-9.076 -24.208,-4.805z" fill="#7fe0ff"></path><path d="M72.895,54.359c-6.265,0 -13.678,-6.86 -18.794,-12.615c-4.756,-5.35 -11.458,-7.193 -16.122,-7.077c-2.998,0.056 -5.452,0.894 -6.565,2.242c0,0 0,0 -0.001,0.001c-0.352,0.427 -0.982,0.487 -1.408,0.136c-0.426,-0.351 -0.488,-0.98 -0.136,-1.406c0.001,-0.003 0.003,-0.005 0.005,-0.007c7.011,-8.504 11.245,-13.637 18.757,-13.637c9.158,0 13.657,4.833 18.42,9.951c2.129,2.287 4.331,4.652 7.042,6.658c2.023,1.495 6.572,3.132 10.357,2.076c2.364,-0.657 4.089,-2.269 5.127,-4.787c0.203,-0.492 0.759,-0.738 1.259,-0.562c0.502,0.179 0.776,0.719 0.624,1.229c-3.342,11.145 -10.282,17.798 -18.565,17.798zM38.293,32.664c5.1,0 12.213,2.026 17.303,7.752c6.846,7.702 12.99,11.943 17.299,11.943c5.891,0 11.058,-3.931 14.46,-10.767c-0.726,0.438 -1.517,0.779 -2.369,1.016c-4.685,1.304 -9.897,-0.778 -12.083,-2.396c-2.86,-2.115 -5.125,-4.55 -7.316,-6.903c-4.651,-4.998 -8.668,-9.313 -16.956,-9.313c-5.472,0 -9.01,3.182 -14.004,9.055c1.014,-0.23 2.128,-0.361 3.315,-0.383c0.116,-0.003 0.233,-0.004 0.351,-0.004z" fill="#1f212b"></path><path d="M51.753,78.004c-5.083,0 -11.761,-4.483 -18.803,-12.625c-4.598,-5.317 -11.242,-7.159 -15.893,-7.098c-3.105,0.036 -5.642,0.886 -6.787,2.272l-0.001,0.001v0c-0.352,0.428 -0.98,0.487 -1.408,0.136c-0.426,-0.352 -0.487,-0.981 -0.135,-1.407v0c0.001,-0.002 0.003,-0.004 0.004,-0.006c7.011,-8.504 11.245,-13.637 18.757,-13.637c9.493,0 14.151,5.034 19.084,10.363c1.964,2.123 3.996,4.317 6.412,6.271c2.183,1.766 6.437,3.152 10.016,2.235c2.51,-0.641 4.338,-2.313 5.435,-4.973c0.204,-0.493 0.759,-0.74 1.259,-0.562c0.502,0.179 0.776,0.719 0.624,1.229c-3.34,11.148 -10.28,17.801 -18.564,17.801zM17.257,56.279c5.104,0 12.233,2.04 17.207,7.791c6.656,7.695 12.797,11.934 17.29,11.934c5.864,0 11.011,-3.895 14.414,-10.675c-0.812,0.497 -1.705,0.873 -2.671,1.119c-4.258,1.089 -9.144,-0.494 -11.769,-2.618c-2.528,-2.044 -4.609,-4.293 -6.622,-6.468c-4.828,-5.217 -8.998,-9.722 -17.616,-9.722c-5.467,0 -9.004,3.176 -13.991,9.038c1.076,-0.247 2.266,-0.383 3.537,-0.397c0.072,-0.001 0.147,-0.002 0.221,-0.002z" fill="#1f212b"></path><path d="M59.424,69.567c-4.122,0 -8.357,-2.487 -10.382,-4.126c-2.181,-1.764 -4.185,-3.977 -6.124,-6.116c-4.343,-4.796 -8.445,-9.325 -14.418,-9.325c-0.276,0 -0.5,-0.224 -0.5,-0.5c0,-0.276 0.224,-0.5 0.5,-0.5c6.416,0 10.861,4.907 15.159,9.653c1.913,2.112 3.891,4.296 6.011,6.011c2.148,1.737 6.905,4.494 11.123,3.794c0.271,-0.049 0.529,0.14 0.575,0.411c0.045,0.272 -0.139,0.53 -0.412,0.575c-0.505,0.084 -1.018,0.123 -1.532,0.123z" fill="#000000"></path><path d="M19.5,53c-0.162,0 -0.32,-0.078 -0.417,-0.223c-0.153,-0.229 -0.091,-0.54 0.139,-0.693c2.513,-1.676 4.26,-2.59 6.836,-2.935c0.273,-0.045 0.525,0.155 0.562,0.429c0.037,0.274 -0.155,0.525 -0.429,0.562c-2.381,0.319 -4.028,1.186 -6.414,2.776c-0.085,0.057 -0.181,0.084 -0.277,0.084z" fill="#000000"></path><path d="M80.924,46.067c-4.122,0 -8.357,-2.487 -10.382,-4.126c-2.181,-1.764 -4.185,-3.977 -6.124,-6.116c-4.343,-4.796 -8.445,-9.325 -14.418,-9.325c-0.276,0 -0.5,-0.224 -0.5,-0.5c0,-0.276 0.224,-0.5 0.5,-0.5c6.416,0 10.861,4.907 15.159,9.653c1.913,2.112 3.891,4.296 6.011,6.011c2.148,1.737 6.907,4.487 11.123,3.794c0.273,-0.053 0.53,0.14 0.575,0.411c0.045,0.272 -0.139,0.53 -0.412,0.575c-0.505,0.084 -1.018,0.123 -1.532,0.123z" fill="#000000"></path><path d="M41,29.5c-0.162,0 -0.32,-0.078 -0.417,-0.223c-0.153,-0.229 -0.091,-0.54 0.139,-0.693c2.24,-1.493 3.869,-2.383 6.057,-2.809c0.273,-0.046 0.534,0.125 0.586,0.396c0.053,0.271 -0.125,0.534 -0.396,0.587c-2.022,0.393 -3.561,1.237 -5.693,2.658c-0.084,0.057 -0.18,0.084 -0.276,0.084z" fill="#000000"></path></g></g></svg>