<svg xmlns="http://www.w3.org/2000/svg"  viewBox="0 0 100 100" width="100px" height="100px"><path fill="#fff" d="M12.5,53h-1c-0.276,0-0.5-0.224-0.5-0.5s0.224-0.5,0.5-0.5h1c0.276,0,0.5,0.224,0.5,0.5 S12.777,53,12.5,53z"/><path fill="#fff" d="M9.5,53h-2C7.224,53,7,52.776,7,52.5S7.224,52,7.5,52h2c0.276,0,0.5,0.224,0.5,0.5S9.777,53,9.5,53z"/><path fill="#c7ede6" d="M87.215,56.71C88.35,54.555,89,52.105,89,49.5c0-6.621-4.159-12.257-10.001-14.478 C78.999,35.015,79,35.008,79,35c0-11.598-9.402-21-21-21c-9.784,0-17.981,6.701-20.313,15.757C36.211,29.272,34.638,29,33,29 c-7.692,0-14.023,5.793-14.89,13.252C12.906,43.353,9,47.969,9,53.5C9,59.851,14.149,65,20.5,65c0.177,0,0.352-0.012,0.526-0.022 C21.022,65.153,21,65.324,21,65.5C21,76.822,30.178,86,41.5,86c6.437,0,12.175-2.972,15.934-7.614C59.612,80.611,62.64,82,66,82 c4.65,0,8.674-2.65,10.666-6.518C77.718,75.817,78.837,76,80,76c6.075,0,11-4.925,11-11C91,61.689,89.53,58.727,87.215,56.71z"/><path fill="#472b29" d="M35.25,71C35.112,71,35,70.888,35,70.75c0-1.223,0.995-2.218,2.218-2.218 c0.034,0.009,0.737-0.001,1.244,0.136c0.133,0.036,0.212,0.173,0.176,0.306c-0.036,0.134-0.173,0.213-0.306,0.176 c-0.444-0.12-1.1-0.12-1.113-0.118c-0.948,0-1.719,0.771-1.719,1.718C35.5,70.888,35.388,71,35.25,71z"/><path fill="#fdfcef" d="M33.5,75.5c0,0,1.567,0,3.5,0s3.5-1.567,3.5-3.5c0-1.781-1.335-3.234-3.055-3.455 C37.473,68.366,37.5,68.187,37.5,68c0-1.933-1.567-3.5-3.5-3.5c-1.032,0-1.95,0.455-2.59,1.165 c-0.384-1.808-1.987-3.165-3.91-3.165c-2.209,0-4,1.791-4,4c0,0.191,0.03,0.374,0.056,0.558C23.128,66.714,22.592,66.5,22,66.5 c-1.228,0-2.245,0.887-2.455,2.055C19.366,68.527,19.187,68.5,19,68.5c-1.933,0-3.5,1.567-3.5,3.5s1.567,3.5,3.5,3.5s7.5,0,7.5,0 V76h7V75.5z"/><circle cx="28.5" cy="75.5" r=".5" fill="#472b29"/><path fill="#472b29" d="M41,72c0,2.206-1.794,4-4,4h-3.5c-0.276,0-0.5-0.224-0.5-0.5s0.224-0.5,0.5-0.5H37 c1.654,0,3-1.346,3-3c0-1.496-1.125-2.768-2.618-2.959c-0.134-0.018-0.255-0.088-0.336-0.196s-0.115-0.244-0.094-0.377 C36.975,68.314,37,68.16,37,68c0-1.654-1.346-3-3-3c-0.85,0-1.638,0.355-2.219,1c-0.125,0.139-0.321,0.198-0.5,0.148 c-0.182-0.049-0.321-0.195-0.36-0.379C30.58,64.165,29.141,63,27.5,63c-1.93,0-3.5,1.57-3.5,3.5c0,0.143,0.021,0.28,0.041,0.418 c0.029,0.203-0.063,0.438-0.242,0.54s-0.396,0.118-0.556-0.01C22.878,67.155,22.449,67,22,67c-0.966,0-1.792,0.691-1.963,1.644 c-0.048,0.267-0.296,0.446-0.569,0.405C19.314,69.025,19.16,69,19,69c-1.654,0-3,1.346-3,3s1.346,3,3,3h7.5 c0.276,0,0.5,0.224,0.5,0.5S26.776,76,26.5,76H19c-2.206,0-4-1.794-4-4s1.794-4,4-4c0.059,0,0.116,0.002,0.174,0.006 C19.588,66.82,20.711,66,22,66c0.349,0,0.689,0.061,1.011,0.18C23.176,63.847,25.126,62,27.5,62c1.831,0,3.466,1.127,4.153,2.774 C32.333,64.276,33.155,64,34,64c2.206,0,4,1.794,4,4c0,0.048-0.001,0.095-0.004,0.142C39.739,68.59,41,70.169,41,72z"/><path fill="#472b29" d="M31.5,75c-0.159,0-0.841,0-1,0c-0.276,0-0.5,0.224-0.5,0.5s0.224,0.5,0.5,0.5c0.159,0,0.841,0,1,0 c0.276,0,0.5-0.224,0.5-0.5S31.776,75,31.5,75z"/><path fill="#6e78ad" d="M36.989,71.012c-3.866-0.001-7-3.135-7-7.001V35.989c0-3.866,3.134-7,7-7h28.023 c3.866,0,7,3.134,7,7v28.023c0,3.866-3.134,7-7,7H36.989z"/><path fill="#472b29" d="M65,29.4c3.639,0,6.6,2.961,6.6,6.6v28c0,3.639-2.961,6.6-6.6,6.6H37c-3.639,0-6.6-2.961-6.6-6.6V36 c0-3.639,2.961-6.6,6.6-6.6H65 M65,28H37c-4.418,0-8,3.582-8,8v28c0,4.418,3.582,8,8,8h28c4.418,0,8-3.582,8-8V36 C73,31.582,69.418,28,65,28L65,28z"/><path fill="#472b29" d="M69.5,41c-0.276,0-0.5-0.224-0.5-0.5v-4c0-2.481-2.019-4.5-4.5-4.5h-11c-0.276,0-0.5-0.224-0.5-0.5 s0.224-0.5,0.5-0.5h11c3.032,0,5.5,2.467,5.5,5.5v4C70,40.776,69.776,41,69.5,41z"/><path fill="#472b29" d="M69.5,57c-0.276,0-0.5-0.224-0.5-0.5v-9.016c0-0.276,0.224-0.5,0.5-0.5s0.5,0.224,0.5,0.5V56.5 C70,56.776,69.776,57,69.5,57z"/><path fill="#472b29" d="M70,63.5c0,3.033-2.468,5.5-5.5,5.5h-27c-3.032,0-5.5-2.467-5.5-5.5v-27c0-3.033,2.468-5.5,5.5-5.5 h7c0.276,0,0.5,0.224,0.5,0.5S44.776,32,44.5,32h-7c-2.481,0-4.5,2.019-4.5,4.5v27c0,2.481,2.019,4.5,4.5,4.5h27 c2.481,0,4.5-2.019,4.5-4.5v-4c0-0.276,0.224-0.5,0.5-0.5s0.5,0.224,0.5,0.5V63.5z"/><path fill="#472b29" d="M50.5,32h-3c-0.276,0-0.5-0.224-0.5-0.5s0.224-0.5,0.5-0.5h3c0.276,0,0.5,0.224,0.5,0.5 S50.776,32,50.5,32z"/><path fill="#fff" d="M18.5,51h-1c-0.276,0-0.5-0.224-0.5-0.5s0.224-0.5,0.5-0.5h1c0.276,0,0.5,0.224,0.5,0.5 S18.777,51,18.5,51z"/><path fill="#fff" d="M23.491,53H14.5c-0.276,0-0.5-0.224-0.5-0.5s0.224-0.5,0.5-0.5h8.991c0.276,0,0.5,0.224,0.5,0.5 S23.767,53,23.491,53z"/><path fill="#fff" d="M18.5,46c-0.177,0-0.823,0-1,0c-0.276,0-0.5,0.224-0.5,0.5s0.224,0.5,0.5,0.5c0.177,0,0.823,0,1,0 c0.276,0,0.5-0.224,0.5-0.5S18.776,46,18.5,46z"/><path fill="#fff" d="M18.5,48c-0.177,0-4.823,0-5,0c-0.276,0-0.5,0.224-0.5,0.5s0.224,0.5,0.5,0.5c0.177,0,4.823,0,5,0 c0.276,0,0.5-0.224,0.5-0.5S18.776,48,18.5,48z"/><path fill="#fff" d="M23.5,50c-0.177,0-2.823,0-3,0c-0.276,0-0.5,0.224-0.5,0.5s0.224,0.5,0.5,0.5c0.177,0,2.823,0,3,0 c0.276,0,0.5-0.224,0.5-0.5S23.776,50,23.5,50z"/><path fill="#fff" d="M87.5,65h-10c-0.276,0-0.5-0.224-0.5-0.5s0.224-0.5,0.5-0.5h10c0.276,0,0.5,0.224,0.5,0.5 S87.776,65,87.5,65z"/><path fill="#fff" d="M92,64.5c0,0.276-0.224,0.5-0.5,0.5h-2c-0.276,0-0.5-0.224-0.5-0.5s0.224-0.5,0.5-0.5h2 C91.776,64,92,64.224,92,64.5z"/><path fill="#fff" d="M96.5,67h-10c-0.276,0-0.5-0.224-0.5-0.5s0.224-0.5,0.5-0.5h10c0.276,0,0.5,0.224,0.5,0.5 S96.777,67,96.5,67z"/><path fill="#fff" d="M84.5,67h-1c-0.276,0-0.5-0.224-0.5-0.5s0.224-0.5,0.5-0.5h1c0.276,0,0.5,0.224,0.5,0.5 S84.776,67,84.5,67z"/><path fill="#fff" d="M81.375,67H79.5c-0.276,0-0.5-0.224-0.5-0.5s0.224-0.5,0.5-0.5h1.875c0.276,0,0.5,0.224,0.5,0.5 S81.651,67,81.375,67z"/><path fill="#fff" d="M91,62.5c0,0.276-0.223,0.5-0.5,0.5h-5c-0.276,0-0.5-0.224-0.5-0.5s0.224-0.5,0.5-0.5h5 C90.776,62,91,62.224,91,62.5z"/><path fill="#fff" d="M87.5,69h-2c-0.276,0-0.5-0.224-0.5-0.5s0.224-0.5,0.5-0.5h2c0.276,0,0.5,0.224,0.5,0.5 S87.776,69,87.5,69z"/><path fill="#fdfcef" d="M80.875,34.5c0,0,3.64,0,6.125,0s4.5-2.015,4.5-4.5c0-2.333-1.782-4.229-4.055-4.455 C87.467,25.364,87.5,25.187,87.5,25c0-2.485-2.015-4.5-4.5-4.5c-1.438,0-2.703,0.686-3.527,1.736 C79.333,19.6,77.171,17.5,74.5,17.5c-2.761,0-5,2.239-5,5c0,0.446,0.077,0.87,0.187,1.282C69.045,23.005,68.086,22.5,67,22.5 c-1.781,0-3.234,1.335-3.455,3.055C63.364,25.533,63.187,25.5,63,25.5c-2.485,0-4.5,2.015-4.5,4.5s2.015,4.5,4.5,4.5s9.5,0,9.5,0 h5.375V35h3V34.5z"/><path fill="#472b29" d="M74.5,17c-3.033,0-5.5,2.467-5.5,5.5c0,0.016,0,0.031,0,0.047C68.398,22.192,67.71,22,67,22 c-1.831,0-3.411,1.261-3.858,3.005C63.095,25.002,63.048,25,63,25c-2.757,0-5,2.243-5,5s2.243,5,5,5h14.875 c0.276,0,0.5-0.224,0.5-0.5s-0.224-0.5-0.5-0.5H63c-2.206,0-4-1.794-4-4s1.794-4,4-4c0.117,0,0.23,0.017,0.343,0.032l0.141,0.019 c0.021,0.003,0.041,0.004,0.062,0.004c0.246,0,0.462-0.185,0.495-0.437C64.232,24.125,65.504,23,67,23 c0.885,0,1.723,0.401,2.301,1.1c0.098,0.118,0.241,0.182,0.386,0.182c0.078,0,0.156-0.018,0.228-0.056 c0.209-0.107,0.314-0.346,0.254-0.573C70.054,23.218,70,22.852,70,22.5c0-2.481,2.019-4.5,4.5-4.5 c2.381,0,4.347,1.872,4.474,4.263c0.011,0.208,0.15,0.387,0.349,0.45c0.05,0.016,0.101,0.024,0.152,0.024 c0.15,0,0.296-0.069,0.392-0.192C80.638,21.563,81.779,21,83,21c2.206,0,4,1.794,4,4c0,0.117-0.017,0.23-0.032,0.343l-0.019,0.141 c-0.016,0.134,0.022,0.268,0.106,0.373s0.207,0.172,0.34,0.185C89.451,26.247,91,27.949,91,30c0,2.206-1.794,4-4,4h-6.125 c-0.276,0-0.5,0.224-0.5,0.5s0.224,0.5,0.5,0.5H87c2.757,0,5-2.243,5-5c0-2.397-1.689-4.413-4.003-4.877 C87.999,25.082,88,25.041,88,25c0-2.757-2.243-5-5-5c-1.176,0-2.293,0.416-3.183,1.164C79.219,18.76,77.055,17,74.5,17L74.5,17z"/><path fill="#472b29" d="M73,24c-1.403,0-2.609,0.999-2.913,2.341C69.72,26.119,69.301,26,68.875,26 c-1.202,0-2.198,0.897-2.353,2.068C66.319,28.022,66.126,28,65.938,28c-1.529,0-2.811,1.2-2.918,2.732 C63.01,30.87,63.114,30.99,63.251,31c0.006,0,0.012,0,0.018,0c0.13,0,0.24-0.101,0.249-0.232c0.089-1.271,1.151-2.268,2.419-2.268 c0.229,0,0.47,0.042,0.738,0.127c0.022,0.007,0.045,0.01,0.067,0.01c0.055,0,0.11-0.02,0.156-0.054 C66.962,28.537,67,28.455,67,28.375c0-1.034,0.841-1.875,1.875-1.875c0.447,0,0.885,0.168,1.231,0.473 c0.047,0.041,0.106,0.063,0.165,0.063c0.032,0,0.063-0.006,0.093-0.019c0.088-0.035,0.148-0.117,0.155-0.212 C70.623,25.512,71.712,24.5,73,24.5c0.208,0,0.425,0.034,0.682,0.107c0.023,0.007,0.047,0.01,0.07,0.01 c0.109,0,0.207-0.073,0.239-0.182c0.038-0.133-0.039-0.271-0.172-0.309C73.517,24.04,73.256,24,73,24L73,24z"/><path fill="#472b29" d="M86.883,25.5c-1.326,0-2.508,0.897-2.874,2.182c-0.038,0.133,0.039,0.271,0.172,0.309 C84.205,27.997,84.228,28,84.25,28c0.109,0,0.209-0.072,0.24-0.182C84.795,26.748,85.779,26,86.883,26 c0.117,0,0.23,0.014,0.342,0.029c0.012,0.002,0.023,0.003,0.035,0.003c0.121,0,0.229-0.092,0.246-0.217 c0.019-0.137-0.077-0.263-0.214-0.281C87.158,25.516,87.022,25.5,86.883,25.5L86.883,25.5z"/><path fill="#fff" d="M38,63.5c-0.827,0-1.5-0.673-1.5-1.5V38c0-0.827,0.673-1.5,1.5-1.5h8.979 c0.839,0,1.521,0.683,1.521,1.521V62c0,0.827-0.673,1.5-1.5,1.5H38z"/><path fill="#472b29" d="M46.979,37C47.542,37,48,37.458,48,38.022V62c0,0.551-0.449,1-1,1h-9c-0.551,0-1-0.449-1-1V38 c0-0.551,0.449-1,1-1H46.979 M46.979,36H38c-1.105,0-2,0.895-2,2v24c0,1.105,0.895,2,2,2h9c1.105,0,2-0.895,2-2V38.022 C49,36.905,48.095,36,46.979,36L46.979,36z"/><path fill="#fff" d="M55.021,51.5c-0.839,0-1.521-0.683-1.521-1.521V38.021c0-0.839,0.683-1.521,1.521-1.521h8.957 c0.839,0,1.521,0.683,1.521,1.521v11.957c0,0.839-0.683,1.521-1.521,1.521H55.021z"/><path fill="#472b29" d="M63.979,37C64.542,37,65,37.458,65,38.022v11.957C65,50.542,64.542,51,63.979,51h-8.957 C54.458,51,54,50.542,54,49.978V38.022C54,37.458,54.458,37,55.021,37H63.979 M63.979,36h-8.957C53.905,36,53,36.905,53,38.022 v11.957C53,51.095,53.905,52,55.021,52h8.957C65.095,52,66,51.095,66,49.978V38.022C66,36.905,65.095,36,63.979,36L63.979,36z"/></svg>